<svg width="1865" height="893" version="1.1" xmlns="http://www.w3.org/2000/svg" desc="Created with imagetracer.js version 1.2.6" ><path fill="rgb(0,0,0)" stroke="rgb(0,0,0)" stroke-width="1" opacity="0" d="M 0 0 L 1865 0 L 1865 893 L 0 893 L 0 0 Z M 1046 26 L 1045 28 L 1038 29 L 1020 39 L 1016 43 L 1015 42 L 1014 44 L 1011 46 L 1003 54 L 1003 56 L 1017 57 L 1035 66 L 1045 77 L 1044 78 L 1045 84 L 1047 86 L 1046 88 L 1044 88 L 1024 75 L 1001 65 L 991 65 L 990 63 L 988 62 L 986 62 L 986 64 L 974 64 Q 972 60 971 63 Q 968 62 969 65 L 963 65 L 953 68 L 942 74 L 935 80 L 929 87 L 928 85 L 925 90 L 925 92 L 923 95 L 922 94 L 918 100 L 919 102 L 918 105 L 917 102 L 913 112 Q 910 113 914 115 L 910 128 L 907 131 L 908 134 L 905 152 L 902 155 L 904 160 L 902 176 L 895 177 Q 892 178 894 180 L 893 185 L 893 201 L 894 202 Q 896 208 893 210 Q 892 214 895 213 L 898 229 L 898 231 L 899 233 Q 898 235 902 234 L 903 236 L 903 244 L 903 246 L 903 251 L 905 254 L 907 268 L 910 277 L 910 279 L 914 290 Q 916 294 918 291 L 921 299 Q 919 300 922 301 Q 926 300 924 305 L 921 307 L 906 308 L 901 310 L 892 310 L 891 309 L 890 309 Q 887 308 888 311 L 886 311 L 884 311 L 882 313 L 858 315 L 856 316 L 857 314 Q 855 310 854 314 L 840 314 L 839 313 L 819 314 L 818 315 Q 812 317 811 314 Q 808 313 809 316 L 792 319 L 792 317 L 790 320 Q 784 319 781 322 L 764 322 Q 759 319 751 320 L 750 317 Q 747 316 748 319 L 743 318 L 734 318 L 732 318 L 726 320 L 721 320 L 688 331 L 686 332 Q 685 327 688 326 Q 690 327 689 324 L 691 324 L 693 318 L 692 316 L 694 316 L 695 313 L 693 313 L 697 306 Q 696 303 700 304 L 703 298 L 700 299 L 703 294 Q 702 291 705 292 Q 709 290 706 289 L 722 261 Q 725 256 727 258 L 726 256 L 729 255 L 728 254 L 729 252 Q 734 244 744 240 Q 745 236 747 239 L 747 237 L 760 232 Q 767 231 770 234 Q 772 233 771 236 L 779 240 L 789 243 L 795 243 L 802 246 Q 803 249 805 247 L 820 254 L 821 256 L 821 253 L 834 246 L 837 242 L 833 233 Q 834 230 836 232 L 845 227 L 849 221 Q 850 214 848 211 L 848 209 Q 849 206 846 207 L 842 197 L 843 194 L 841 189 L 838 188 L 839 185 L 838 185 L 833 177 L 834 175 L 833 175 L 828 168 L 826 165 L 818 162 L 806 162 L 799 163 L 799 160 L 795 164 Q 768 167 747 176 L 745 176 L 729 188 L 701 218 L 700 217 L 699 220 L 697 220 Q 694 219 695 222 L 690 227 L 691 228 L 682 237 Q 683 239 680 238 L 680 240 L 646 275 Q 643 274 644 277 L 640 280 L 631 290 Q 630 292 629 290 L 619 305 L 618 303 L 617 308 L 609 319 Q 608 321 607 319 L 605 322 L 606 324 L 593 346 L 593 366 L 594 367 L 593 369 L 595 372 L 595 371 L 596 371 L 595 373 L 597 373 L 596 375 L 598 375 Q 599 381 603 384 L 603 386 L 617 396 L 637 402 L 640 404 L 647 405 L 650 407 L 697 417 L 722 418 L 723 419 L 738 419 L 739 418 L 760 417 L 764 415 L 772 414 L 784 409 L 786 422 L 788 424 L 788 469 L 789 470 L 787 480 L 787 520 L 789 525 L 789 580 L 790 581 L 790 605 L 788 607 L 788 667 L 787 668 L 795 697 L 798 702 L 798 705 L 809 734 L 812 750 L 815 757 L 815 765 L 817 769 Q 816 775 818 775 L 1066 775 L 1067 773 L 1066 771 Q 1050 752 1031 737 L 1018 725 L 1014 719 L 1012 710 L 1013 682 Q 1016 680 1014 675 L 1016 671 L 1017 661 L 1019 657 L 1018 654 L 1018 651 L 1040 585 L 1042 582 L 1047 564 L 1049 561 L 1049 558 L 1053 556 L 1056 550 Q 1058 551 1056 553 L 1057 565 L 1059 570 L 1059 579 L 1061 584 L 1062 597 L 1064 602 L 1065 619 L 1067 624 L 1068 638 L 1070 642 L 1071 656 L 1073 660 L 1073 669 L 1075 675 L 1076 689 L 1078 694 L 1078 701 L 1076 709 L 1076 742 L 1079 759 L 1085 773 L 1086 775 L 1168 775 L 1166 768 L 1166 758 L 1163 744 L 1161 723 L 1155 706 L 1155 702 L 1153 699 L 1150 684 L 1144 667 L 1144 663 L 1141 656 Q 1142 650 1139 649 L 1139 644 L 1133 625 L 1132 616 L 1130 612 L 1130 606 L 1128 603 Q 1128 593 1125 588 L 1125 578 L 1123 569 L 1123 561 L 1128 541 L 1128 535 L 1130 531 L 1130 523 L 1133 511 L 1134 482 L 1135 481 L 1135 453 L 1134 452 L 1133 429 L 1131 425 L 1128 410 L 1122 399 L 1112 388 L 1101 382 L 1068 372 L 1046 361 L 1041 361 L 1039 357 L 1022 335 L 1018 332 L 1019 330 L 1018 327 L 1019 309 L 1022 306 L 1021 304 Q 1020 299 1023 300 L 1022 298 L 1024 295 Q 1023 292 1026 293 L 1025 292 L 1027 289 L 1030 287 Q 1033 287 1032 283 L 1032 281 L 1034 276 L 1036 276 L 1039 269 L 1040 262 L 1045 259 Q 1047 260 1046 257 L 1048 257 L 1055 245 L 1054 247 L 1056 247 L 1058 241 L 1057 239 L 1065 217 L 1065 211 L 1059 206 L 1061 199 L 1061 201 L 1062 201 L 1061 198 L 1063 191 L 1063 186 L 1065 186 L 1066 184 L 1064 181 L 1066 172 L 1066 156 L 1068 156 L 1068 142 L 1067 142 L 1066 129 L 1064 123 L 1065 121 Q 1066 117 1063 118 L 1060 111 L 1062 111 L 1061 108 Q 1062 104 1060 105 L 1058 101 L 1057 103 L 1049 93 L 1049 90 L 1052 90 L 1065 97 Q 1077 107 1082 126 L 1081 132 L 1083 131 L 1084 138 L 1082 141 L 1085 147 L 1085 160 L 1083 160 L 1083 167 L 1084 168 L 1083 179 L 1082 180 L 1082 188 L 1080 188 L 1081 192 Q 1079 193 1080 198 L 1078 198 L 1079 203 L 1079 229 L 1078 230 L 1078 232 L 1080 233 L 1080 238 L 1080 240 L 1082 243 L 1083 251 L 1083 253 L 1083 258 L 1089 269 L 1090 267 L 1090 269 Q 1086 270 1090 272 L 1091 270 L 1091 272 L 1092 273 Q 1089 272 1090 275 L 1094 277 L 1092 278 L 1095 279 L 1098 284 L 1096 284 L 1097 286 Q 1096 289 1100 287 Q 1108 302 1120 314 Q 1119 316 1122 315 L 1125 320 L 1129 321 L 1128 320 L 1130 319 L 1131 320 Q 1132 317 1130 318 L 1125 314 L 1119 301 L 1121 301 L 1122 299 Q 1118 300 1120 295 L 1120 293 L 1118 292 L 1115 286 L 1111 265 L 1111 257 L 1112 256 Q 1113 253 1110 254 L 1110 239 L 1109 238 L 1110 215 Q 1113 214 1112 210 L 1111 207 L 1111 202 L 1113 195 L 1115 195 L 1119 187 L 1118 185 L 1122 174 L 1124 174 L 1124 173 Q 1128 171 1124 169 L 1128 158 Q 1127 155 1130 156 L 1129 154 L 1131 154 L 1132 148 L 1131 147 L 1134 144 L 1133 141 Q 1132 134 1135 133 L 1134 131 L 1135 128 L 1135 106 L 1131 89 L 1131 87 L 1132 85 Q 1131 82 1130 84 L 1124 71 L 1122 69 L 1124 66 L 1122 67 L 1122 65 Q 1119 66 1120 63 L 1119 63 L 1115 58 L 1115 55 L 1112 53 L 1095 37 L 1093 37 L 1085 31 Q 1081 32 1082 30 L 1081 30 L 1072 26 L 1048 26 L 1046 26 Z M 1000 54 L 999 58 L 1001 60 L 1002 56 Q 1003 53 1000 54 Z M 1443 419 L 1441 421 L 1441 776 L 1443 777 L 1487 777 L 1488 776 L 1488 421 L 1487 419 L 1443 419 Z M 1527 419 L 1525 421 L 1525 777 L 1526 777 L 1571 777 L 1572 776 L 1573 503 L 1766 776 L 1768 777 L 1818 777 L 1819 776 L 1819 422 L 1817 419 L 1774 419 L 1772 421 L 1772 701 L 1574 424 L 1570 419 L 1527 419 Z M 1190 420 L 1188 422 L 1188 778 L 1234 778 L 1234 662 L 1275 662 L 1348 777 L 1350 778 L 1402 778 L 1401 774 L 1327 661 L 1324 654 Q 1342 649 1355 636 Q 1372 621 1385 601 Q 1393 588 1397 573 L 1400 558 L 1400 549 L 1401 548 L 1400 524 L 1396 506 Q 1388 482 1374 466 Q 1350 435 1307 423 L 1291 420 L 1190 420 Z M 411 440 L 404 456 L 296 773 L 298 774 L 343 774 L 376 674 L 377 670 L 493 670 L 504 701 L 528 774 L 575 774 L 576 773 L 463 443 L 463 440 L 411 440 Z M 521 440 L 521 478 L 621 478 L 622 480 L 622 774 L 667 774 L 667 774 L 667 478 L 768 478 L 769 477 L 769 442 L 768 440 L 521 440 Z M 49 441 L 47 443 L 47 775 L 48 775 L 92 775 L 93 774 L 93 634 L 115 605 L 236 773 L 239 775 L 290 775 L 290 773 L 283 763 L 141 570 L 232 443 L 231 441 L 181 441 L 94 561 L 93 443 L 92 441 L 49 441 Z M 683 850 L 682 851 L 492 851 L 491 852 L 300 853 L 299 854 L 245 854 L 244 855 L 178 856 L 177 857 L 168 857 L 164 859 L 168 860 L 177 860 L 178 861 L 243 862 L 244 863 L 302 863 L 303 864 L 491 865 L 492 866 L 679 866 L 680 867 L 1199 867 L 1200 866 L 1391 866 L 1392 865 L 1503 865 L 1504 864 L 1638 863 L 1639 862 L 1705 861 L 1706 860 L 1715 860 L 1718 859 L 1715 857 L 1706 857 L 1705 856 L 1640 855 L 1639 854 L 1503 853 L 1502 852 L 1392 852 L 1391 851 L 1205 851 L 1204 850 L 683 850 Z " /><path fill="rgb(0,0,0)" stroke="rgb(0,0,0)" stroke-width="1" opacity="0" d="M 1058.5 106 L 1059.5 108 L 1058.5 106 Z " /><path fill="rgb(0,0,0)" stroke="rgb(0,0,0)" stroke-width="1" opacity="0" d="M 1118.5 295 L 1119 297.5 L 1118 297.5 L 1118.5 295 Z " /><path fill="rgb(0,0,0)" stroke="rgb(0,0,0)" stroke-width="1" opacity="0" d="M 1234 462 L 1289.5 462 L 1298.5 464 Q 1323.3 472.7 1338 491.5 Q 1346.3 502.2 1351 516.5 L 1354 532.5 L 1354 549.5 L 1350 568.5 L 1344 581.5 Q 1336.1 594.6 1324.5 604 Q 1311.2 616.2 1289.5 620 L 1280.5 620 L 1279.5 621 L 1235.5 621 L 1234 619.5 L 1234 462 Z " /><path fill="rgb(0,0,0)" stroke="rgb(0,0,0)" stroke-width="1" opacity="0" d="M 434.5 481 L 446 524.5 L 483 634 L 387.5 634 L 387 631.5 L 420 535.5 L 434.5 481 Z " /><path fill="rgb(246,246,246)" stroke="rgb(246,246,246)" stroke-width="1" opacity="0.9686274509803922" d="M 1112 53 L 1115 54.5 L 1114.5 57 L 1112 53 Z " /><path fill="rgb(246,246,246)" stroke="rgb(246,246,246)" stroke-width="1" opacity="0.9686274509803922" d="M 1000 54 Q 1002.7 52.9 1002 55.5 L 1000.5 60 L 999 57.5 L 1000 54 Z " /><path fill="rgb(246,246,246)" stroke="rgb(246,246,246)" stroke-width="1" opacity="0.9686274509803922" d="M 971.5 62 L 972.5 64 L 969 63.5 L 971.5 62 Z " /><path fill="rgb(246,246,246)" stroke="rgb(246,246,246)" stroke-width="1" opacity="0.9686274509803922" d="M 986 62 L 990 63.5 L 987.5 65 L 986 62 Z " /><path fill="rgb(246,246,246)" stroke="rgb(246,246,246)" stroke-width="1" opacity="0.9686274509803922" d="M 1121.5 65 L 1124 66.5 L 1122 67.5 L 1121.5 65 Z " /><path fill="rgb(246,246,246)" stroke="rgb(246,246,246)" stroke-width="1" opacity="0.9686274509803922" d="M 1044.5 77 Q 1047.5 79 1047 84.5 L 1045 83.5 L 1044.5 77 Z " /><path fill="rgb(246,246,246)" stroke="rgb(246,246,246)" stroke-width="1" opacity="0.9686274509803922" d="M 1130.5 83 L 1132 85.5 L 1131.5 88 Q 1128.6 88.4 1130.5 83 Z " /><path fill="rgb(246,246,246)" stroke="rgb(246,246,246)" stroke-width="1" opacity="0.9686274509803922" d="M 928.5 84 L 928 85.5 L 926 91 L 924 90.5 L 928.5 84 Z " /><path fill="rgb(246,246,246)" stroke="rgb(246,246,246)" stroke-width="1" opacity="0.9686274509803922" d="M 921.5 94 L 922 96.5 L 920 101 Q 917.3 102.1 918 99.5 L 921.5 94 Z " /><path fill="rgb(246,246,246)" stroke="rgb(246,246,246)" stroke-width="1" opacity="0.9686274509803922" d="M 1057.5 101 L 1059.5 105 Q 1062.1 104.2 1061 107.5 L 1062 110.5 L 1060 109.5 Q 1060.5 105 1057 104.5 L 1057.5 101 Z " /><path fill="rgb(246,246,246)" stroke="rgb(246,246,246)" stroke-width="1" opacity="0.9686274509803922" d="M 916.5 102 L 917 106.5 L 913.5 114 Q 910.8 112.8 913 111.5 L 916.5 102 Z " /><path fill="rgb(246,246,246)" stroke="rgb(246,246,246)" stroke-width="1" opacity="0.9686274509803922" d="M 1063 118 Q 1066 116.8 1065 120.5 L 1063 119.5 L 1063 118 Z " /><path fill="rgb(246,246,246)" stroke="rgb(246,246,246)" stroke-width="1" opacity="0.9686274509803922" d="M 1031.5 123 L 1032 124.5 L 1030 128 Q 1027.3 126.9 1028 129.5 L 1022.5 134 L 1016.5 137 L 1010.5 138 L 1008.5 140 Q 1000.3 138.3 996.5 141 L 991.5 140 Q 990.2 142.3 985.5 141 L 984.5 140 L 946.5 140 L 935.5 144 L 927 150 L 924.5 154 L 925 152.5 L 932.5 143 L 942.5 138 L 950.5 136 L 979.5 136 L 980.5 137 L 1004.5 137 L 1016.5 134 L 1022.5 131 L 1031.5 123 Z " /><path fill="rgb(246,246,246)" stroke="rgb(246,246,246)" stroke-width="1" opacity="0.9686274509803922" d="M 908.5 129 L 909 133 L 907 132.5 L 908.5 129 Z " /><path fill="rgb(246,246,246)" stroke="rgb(246,246,246)" stroke-width="1" opacity="0.9686274509803922" d="M 1134.5 131 L 1135 132.5 L 1133 133.5 L 1134.5 131 Z " /><path fill="rgb(246,246,246)" stroke="rgb(246,246,246)" stroke-width="1" opacity="0.9686274509803922" d="M 1083.5 139 L 1085 145 Q 1081.7 146.3 1083 141.5 Q 1080.8 140.3 1083.5 139 Z " /><path fill="rgb(246,246,246)" stroke="rgb(246,246,246)" stroke-width="1" opacity="0.9686274509803922" d="M 1067.5 141 L 1068 155.5 L 1066 154.5 L 1066 142.5 L 1067.5 141 Z " /><path fill="rgb(246,246,246)" stroke="rgb(246,246,246)" stroke-width="1" opacity="0.9686274509803922" d="M 1132 141 Q 1135 139.8 1134 143.5 L 1132 144.5 L 1132 141 Z " /><path fill="rgb(246,246,246)" stroke="rgb(246,246,246)" stroke-width="1" opacity="0.9686274509803922" d="M 1131.5 147 L 1132 148.5 L 1130 156 L 1128 155.5 L 1130 153.5 Q 1128.8 148.3 1131.5 147 Z " /><path fill="rgb(246,246,246)" stroke="rgb(246,246,246)" stroke-width="1" opacity="0.9686274509803922" d="M 903.5 153 L 904 158.5 L 903 158.5 L 902 154.5 L 903.5 153 Z " /><path fill="rgb(246,246,246)" stroke="rgb(246,246,246)" stroke-width="1" opacity="0.9686274509803922" d="M 798.5 160 L 799 164 L 796 162.5 L 798.5 160 Z " /><path fill="rgb(246,246,246)" stroke="rgb(246,246,246)" stroke-width="1" opacity="0.9686274509803922" d="M 1083 160 Q 1086.3 158.7 1085 163.5 L 1083.5 167 L 1083 160 Z " /><path fill="rgb(246,246,246)" stroke="rgb(246,246,246)" stroke-width="1" opacity="0.9686274509803922" d="M 829.5 168 L 830.5 170 L 829.5 168 Z " /><path fill="rgb(246,246,246)" stroke="rgb(246,246,246)" stroke-width="1" opacity="0.9686274509803922" d="M 1124.5 169 Q 1127.8 170.8 1124 172.5 L 1123.5 174 L 1123 170.5 L 1124.5 169 Z " /><path fill="rgb(246,246,246)" stroke="rgb(246,246,246)" stroke-width="1" opacity="0.9686274509803922" d="M 833.5 174 L 835 176.5 L 833 175.5 L 833.5 174 Z " /><path fill="rgb(246,246,246)" stroke="rgb(246,246,246)" stroke-width="1" opacity="0.9686274509803922" d="M 744.5 176 L 743.5 178 L 744.5 176 Z " /><path fill="rgb(246,246,246)" stroke="rgb(246,246,246)" stroke-width="1" opacity="0.9686274509803922" d="M 893.5 176 L 895 179.5 L 892 177.5 L 893.5 176 Z " /><path fill="rgb(246,246,246)" stroke="rgb(246,246,246)" stroke-width="1" opacity="0.9686274509803922" d="M 1064.5 181 L 1066 183.5 L 1064.5 186 L 1063 183.5 L 1064.5 181 Z " /><path fill="rgb(246,246,246)" stroke="rgb(246,246,246)" stroke-width="1" opacity="0.9686274509803922" d="M 838.5 184 L 843 193.5 L 841 194 L 838 186.5 L 838.5 184 Z " /><path fill="rgb(246,246,246)" stroke="rgb(246,246,246)" stroke-width="1" opacity="0.9686274509803922" d="M 1117.5 185 Q 1119.8 184.3 1119 186.5 L 1114.5 195 L 1114 191.5 L 1117.5 185 Z " /><path fill="rgb(246,246,246)" stroke="rgb(246,246,246)" stroke-width="1" opacity="0.9686274509803922" d="M 728.5 188 L 727.5 190 L 728.5 188 Z " /><path fill="rgb(246,246,246)" stroke="rgb(246,246,246)" stroke-width="1" opacity="0.9686274509803922" d="M 1080.5 188 L 1081 190.5 L 1080 190.5 L 1080.5 188 Z " /><path fill="rgb(246,246,246)" stroke="rgb(246,246,246)" stroke-width="1" opacity="0.9686274509803922" d="M 1078.5 197 L 1080 198.5 L 1078.5 202 L 1078.5 197 Z " /><path fill="rgb(246,246,246)" stroke="rgb(246,246,246)" stroke-width="1" opacity="0.9686274509803922" d="M 1061.5 198 L 1062 200.5 L 1061 200.5 L 1061.5 198 Z " /><path fill="rgb(246,246,246)" stroke="rgb(246,246,246)" stroke-width="1" opacity="0.9686274509803922" d="M 1111.5 207 L 1112 209.5 Q 1112.8 213.3 1110.5 214 L 1110 208.5 L 1111.5 207 Z " /><path fill="rgb(246,246,246)" stroke="rgb(246,246,246)" stroke-width="1" opacity="0.9686274509803922" d="M 893.5 209 L 895 213 Q 891.2 214.2 893.5 209 Z " /><path fill="rgb(246,246,246)" stroke="rgb(246,246,246)" stroke-width="1" opacity="0.9686274509803922" d="M 697.5 219 L 696 221.5 L 691.5 227 L 690 226.5 L 695 220 L 697.5 219 Z " /><path fill="rgb(246,246,246)" stroke="rgb(246,246,246)" stroke-width="1" opacity="0.9686274509803922" d="M 688.5 228 L 687.5 230 L 688.5 228 Z " /><path fill="rgb(246,246,246)" stroke="rgb(246,246,246)" stroke-width="1" opacity="0.9686274509803922" d="M 1078.5 229 L 1080 232 Q 1076.5 233.1 1078.5 229 Z " /><path fill="rgb(246,246,246)" stroke="rgb(246,246,246)" stroke-width="1" opacity="0.9686274509803922" d="M 898.5 230 L 901 233.5 L 899 234 L 898.5 230 Z " /><path fill="rgb(246,246,246)" stroke="rgb(246,246,246)" stroke-width="1" opacity="0.9686274509803922" d="M 1057.5 239 L 1058 240.5 L 1056 247 L 1054 246.5 L 1055 243.5 L 1057.5 239 Z " /><path fill="rgb(246,246,246)" stroke="rgb(246,246,246)" stroke-width="1" opacity="0.9686274509803922" d="M 691.5 240 L 692 242 Q 689.3 240.9 690 243.5 L 688 244.5 L 691.5 240 Z " /><path fill="rgb(246,246,246)" stroke="rgb(246,246,246)" stroke-width="1" opacity="0.9686274509803922" d="M 686.5 245 L 687 248 L 678.5 255 L 685 247.5 L 686.5 245 Z " /><path fill="rgb(246,246,246)" stroke="rgb(246,246,246)" stroke-width="1" opacity="0.9686274509803922" d="M 903.5 245 L 904 250.5 L 903 250.5 L 903.5 245 Z " /><path fill="rgb(246,246,246)" stroke="rgb(246,246,246)" stroke-width="1" opacity="0.9686274509803922" d="M 1083.5 252 L 1085 253.5 L 1085 257.5 L 1090 271.5 L 1088 270.5 Q 1090.5 269 1087 267.5 L 1085 259.5 L 1083 257.5 L 1083.5 252 Z " /><path fill="rgb(246,246,246)" stroke="rgb(246,246,246)" stroke-width="1" opacity="0.9686274509803922" d="M 820.5 253 L 821 255.5 L 820 255.5 L 820.5 253 Z " /><path fill="rgb(246,246,246)" stroke="rgb(246,246,246)" stroke-width="1" opacity="0.9686274509803922" d="M 1110 254 Q 1112.7 252.9 1112 255.5 L 1110 256.5 L 1110 254 Z " /><path fill="rgb(246,246,246)" stroke="rgb(246,246,246)" stroke-width="1" opacity="0.9686274509803922" d="M 676.5 256 L 678 256.5 L 665.5 271 Q 663.3 270.3 664 272.5 L 658.5 279 L 657 278.5 L 676.5 256 Z " /><path fill="rgb(246,246,246)" stroke="rgb(246,246,246)" stroke-width="1" opacity="0.9686274509803922" d="M 1038.5 266 L 1039 268.5 L 1035.5 276 L 1035 272.5 L 1038.5 266 Z " /><path fill="rgb(246,246,246)" stroke="rgb(246,246,246)" stroke-width="1" opacity="0.9686274509803922" d="M 1090 273 Q 1092.7 271.9 1092 274.5 L 1092.5 276 L 1090 274.5 L 1090 273 Z " /><path fill="rgb(246,246,246)" stroke="rgb(246,246,246)" stroke-width="1" opacity="0.9686274509803922" d="M 1092.5 277 L 1095 278.5 L 1092.5 280 L 1092.5 277 Z " /><path fill="rgb(246,246,246)" stroke="rgb(246,246,246)" stroke-width="1" opacity="0.9686274509803922" d="M 910.5 278 L 917 291.5 L 914 289.5 L 910.5 278 Z " /><path fill="rgb(246,246,246)" stroke="rgb(246,246,246)" stroke-width="1" opacity="0.9686274509803922" d="M 656.5 280 L 656 281.5 Q 656.7 284.1 654 283 Q 652.9 280.3 655.5 281 L 656.5 280 Z " /><path fill="rgb(246,246,246)" stroke="rgb(246,246,246)" stroke-width="1" opacity="0.9686274509803922" d="M 1031.5 281 L 1033 281.5 L 1029.5 287 L 1028 286.5 L 1031.5 281 Z " /><path fill="rgb(246,246,246)" stroke="rgb(246,246,246)" stroke-width="1" opacity="0.9686274509803922" d="M 1096.5 283 L 1099 287 Q 1096.3 288.1 1097 285.5 L 1096.5 283 Z " /><path fill="rgb(246,246,246)" stroke="rgb(246,246,246)" stroke-width="1" opacity="0.9686274509803922" d="M 652 284 L 654 284.5 L 652 285.5 L 652 284 Z " /><path fill="rgb(246,246,246)" stroke="rgb(246,246,246)" stroke-width="1" opacity="0.9686274509803922" d="M 650.5 286 L 651 287.5 L 649 288.5 L 650.5 286 Z " /><path fill="rgb(246,246,246)" stroke="rgb(246,246,246)" stroke-width="1" opacity="0.9686274509803922" d="M 1116.5 287 L 1118 292 L 1120 292.5 L 1120 294.5 Q 1118.1 299.9 1121.5 299 L 1120.5 301 L 1116 290.5 L 1116.5 287 Z " /><path fill="rgb(246,246,246)" stroke="rgb(246,246,246)" stroke-width="1" opacity="0.9686274509803922" d="M 705.5 289 L 707 289.5 L 704 291.5 L 705.5 289 Z " /><path fill="rgb(246,246,246)" stroke="rgb(246,246,246)" stroke-width="1" opacity="0.9686274509803922" d="M 628.5 290 L 629 291.5 L 627 292.5 L 628.5 290 Z " /><path fill="rgb(246,246,246)" stroke="rgb(246,246,246)" stroke-width="1" opacity="0.9686274509803922" d="M 645.5 293 L 643 296.5 Q 643.8 298.8 641.5 298 L 645.5 293 Z " /><path fill="rgb(246,246,246)" stroke="rgb(246,246,246)" stroke-width="1" opacity="0.9686274509803922" d="M 702.5 297 L 703 298.5 L 700 304 L 698 303.5 L 699 299 L 702.5 297 Z " /><path fill="rgb(246,246,246)" stroke="rgb(246,246,246)" stroke-width="1" opacity="0.9686274509803922" d="M 921.5 298 L 923 301 L 920 299.5 L 921.5 298 Z " /><path fill="rgb(246,246,246)" stroke="rgb(246,246,246)" stroke-width="1" opacity="0.9686274509803922" d="M 617.5 303 L 618 305.5 L 617 305.5 L 617.5 303 Z " /><path fill="rgb(246,246,246)" stroke="rgb(246,246,246)" stroke-width="1" opacity="0.9686274509803922" d="M 1020 304 Q 1022.7 302.9 1022 305.5 L 1020 306.5 L 1020 304 Z " /><path fill="rgb(246,246,246)" stroke="rgb(246,246,246)" stroke-width="1" opacity="0.9686274509803922" d="M 890.5 308 L 891 311 Q 886.9 312.3 888 309 L 890.5 308 Z " /><path fill="rgb(246,246,246)" stroke="rgb(246,246,246)" stroke-width="1" opacity="0.9686274509803922" d="M 695.5 311 L 695 312.5 L 691 324 L 689 324 Q 690.1 326.7 687.5 326 L 688 324.5 L 688 322.5 L 695.5 311 Z " /><path fill="rgb(246,246,246)" stroke="rgb(246,246,246)" stroke-width="1" opacity="0.9686274509803922" d="M 855.5 312 L 858 312.5 L 857 315 L 864.5 315 L 872.5 313 L 882.5 313 L 882 314.5 L 880 319.5 L 880 323.5 L 877 328.5 L 877 332.5 L 874 337.5 L 869 356.5 L 860 380.5 L 860 384.5 L 855 398.5 L 854 411.5 L 857 422.5 L 863 432 L 878.5 442 L 885.5 444 L 900.5 445 L 901.5 446 L 914.5 446 L 915.5 445 L 933.5 444 Q 936.7 440.7 943.5 441 Q 958.4 434.4 968 422.5 Q 980.5 408.5 990 391.5 L 1001 370.5 L 1017.5 332 Q 1021.5 331.5 1022 334.5 L 1039 356.5 L 1042 362.5 L 1036 379.5 L 1032 398.5 L 1031 426.5 L 1035 447.5 L 1046 469.5 L 1051 485.5 L 1051 492.5 L 1053 500.5 L 1053 521.5 L 1052 522.5 L 1052 531.5 L 1051 532.5 L 1050 550.5 L 1049 551.5 L 1050 556.5 L 1019 649.5 L 1016.5 653 L 997.5 640 L 980.5 633 L 978.5 631 L 959.5 624 L 944.5 621 L 939.5 618 L 933.5 618 L 925.5 615 L 920.5 615 L 917.5 613 L 903.5 612 L 892.5 609 L 880.5 609 L 866.5 606 L 828.5 605 L 827.5 604 L 790 604 L 790 580.5 L 789 579.5 L 789 528.5 L 790 527.5 L 790 481.5 L 791 478.5 L 789 478.5 L 789 469.5 L 788 468.5 L 788 423.5 L 791 420.5 L 795 411.5 L 815 387.5 L 844 329.5 L 855.5 312 Z M 791 464 L 790 471 Q 789 473 792 472 L 793 467 Q 794 463 791 464 Z M 1038 569 L 1035 575 L 1036 579 L 1038 577 Q 1037 572 1040 571 Q 1041 568 1038 569 Z M 1033 580 L 1027 594 L 1026 601 L 1024 603 L 1024 607 L 1021 613 Q 1020 617 1023 616 L 1027 606 L 1027 603 L 1032 594 L 1033 587 L 1035 585 Q 1037 579 1033 580 Z " /><path fill="rgb(246,246,246)" stroke="rgb(246,246,246)" stroke-width="1" opacity="0.9686274509803922" d="M 809 314 Q 812 313 811 316 Q 808 317 809 314 Z " /><path fill="rgb(246,246,246)" stroke="rgb(246,246,246)" stroke-width="1" opacity="0.9686274509803922" d="M 1127.5 316 L 1131 318 L 1130.5 320 L 1128.5 319 L 1129.5 322 L 1125 319.5 L 1127.5 316 Z " /><path fill="rgb(246,246,246)" stroke="rgb(246,246,246)" stroke-width="1" opacity="0.9686274509803922" d="M 748 317 L 751 318.5 L 748 320 L 748 317 Z " /><path fill="rgb(246,246,246)" stroke="rgb(246,246,246)" stroke-width="1" opacity="0.9686274509803922" d="M 791.5 317 L 792 318.5 L 790 319.5 L 791.5 317 Z " /><path fill="rgb(246,246,246)" stroke="rgb(246,246,246)" stroke-width="1" opacity="0.9686274509803922" d="M 606.5 319 L 607 321.5 L 604 323.5 L 606.5 319 Z " /><path fill="rgb(246,246,246)" stroke="rgb(246,246,246)" stroke-width="1" opacity="0.9686274509803922" d="M 685.5 328 L 686 330.5 L 685 330.5 L 685.5 328 Z " /><path fill="rgb(246,246,246)" stroke="rgb(246,246,246)" stroke-width="1" opacity="0.9686274509803922" d="M 593 368 Q 596.3 366.7 595 371.5 L 595.5 373 Q 592.3 371.8 593 368 Z " /><path fill="rgb(15,15,15)" stroke="rgb(15,15,15)" stroke-width="1" opacity="0.8" d="M 1047.5 26 L 1071.5 26 Q 1072.9 28.6 1077.5 28 L 1094.5 37 L 1112 53.5 L 1124 70.5 L 1133 93.5 L 1133 99.5 L 1135 105.5 L 1135 127.5 L 1130 152.5 L 1111 201.5 L 1109 237.5 L 1110 238.5 L 1110 256.5 L 1111 257.5 L 1113 277.5 L 1119 300.5 L 1127 315.5 L 1127 318 L 1124.5 318 L 1120 315 L 1100 288.5 L 1085 257.5 L 1079 229.5 L 1079 201.5 L 1080 198.5 L 1080 192.5 L 1082 187.5 L 1082 179.5 L 1085 163.5 L 1085 146.5 L 1085 144.5 L 1082 125.5 L 1078 114.5 Q 1073.2 103.8 1064.5 97 L 1051.5 90 L 1049 90 L 1049 92.5 L 1053 96.5 L 1060 108.5 L 1065 123.5 L 1066 128.5 L 1066 170.5 L 1063 183.5 L 1063 190.5 L 1059 207 L 1065 210.5 L 1065 216.5 L 1057 239.5 L 1046 259 L 1040 262 Q 1033 281.3 1022 297.5 L 1018 313.5 L 1018 326.5 L 1019 329.5 L 1018 332 Q 1014.3 333.5 1015 330.5 L 1016 326.5 Q 1013.7 325.3 1015 320.5 L 1016 319.5 L 1017 304.5 L 1019 298.5 Q 1022 289.5 1028 283.5 L 1028 280.5 L 1032 275.5 L 1034 268 Q 1037 269.3 1036 265.5 L 1038 260 L 1040 260 Q 1038.9 257.3 1041.5 258 L 1045 257 L 1048 249 Q 1051 250.3 1050 246.5 L 1056 235.5 L 1063 212.5 L 1056 208.5 L 1056 203.5 L 1059 197.5 L 1059 188 L 1061 187.5 L 1061 178.5 L 1064 163.5 L 1064 132.5 L 1062 127.5 L 1060 114.5 L 1049 95 Q 1046.3 96.1 1047 93.5 L 1040.5 88 L 1038.5 88 L 1035.5 85 L 1013.5 73 L 1010.5 73 L 1006.5 70 Q 999.7 70.7 997.5 67 L 993.5 67 L 991.5 67 L 967.5 67 L 961.5 70 L 956.5 70 L 942.5 77 L 931 86 L 928 90.5 L 928 93 Q 925.3 91.9 926 94.5 L 919 105.5 L 919 108.5 L 914 120.5 L 914 124.5 L 911 130.5 L 911 135.5 L 908 144.5 L 908 151.5 L 906 154.5 Q 907.4 163.4 905 168.5 Q 907.7 170.3 906 176.5 L 905 179 L 901.5 180 L 898.5 178 L 897 179.5 L 897 215.5 L 899 219.5 L 900 227.5 L 903.5 232 Q 905.8 231.3 905 233.5 L 906 234.5 L 906 249.5 L 908 252.5 L 908 261.5 Q 911.8 264.7 911 272.5 L 920 291.5 L 927 301.5 L 928 306.5 L 920.5 310 L 918.5 309 L 917.5 310 L 911 310 Q 912.3 313 908.5 312 L 906.5 312 L 897.5 312 L 886.5 314 L 882 312.5 L 885.5 311 L 920.5 307 L 924 304.5 L 923 299.5 L 912 281.5 L 907 267.5 L 906 257.5 L 904 252.5 L 903 235.5 L 898 228.5 L 895 217.5 L 894 201.5 L 893 200.5 L 893 184.5 L 896.5 176 Q 904.3 178.7 902 171.5 L 903 170.5 L 904 152.5 L 907 141.5 L 907 136.5 L 914 112.5 Q 920.6 92.6 934.5 80 L 941.5 74 L 958.5 66 L 969.5 64 L 986.5 64 L 988.5 64 Q 992.3 66.7 1000.5 65 L 1008.5 68 L 1023.5 75 L 1043.5 88 L 1046 88 L 1047 81.5 L 1045 76.5 L 1034.5 66 L 1016.5 57 L 1003 56 L 1003 53.5 L 1010.5 46 L 1031.5 32 L 1047.5 26 Z M 1056 29 L 1055 30 L 1044 30 L 1020 42 L 1018 45 L 1010 51 Q 1007 50 1008 53 L 1018 54 L 1025 57 L 1039 67 Q 1038 69 1041 68 Q 1049 75 1051 88 L 1057 89 L 1066 95 Q 1068 94 1067 97 L 1072 100 L 1073 103 Q 1072 105 1075 104 L 1081 115 L 1083 123 L 1083 125 L 1086 132 L 1087 154 L 1088 155 L 1086 166 L 1086 181 L 1083 188 L 1083 197 L 1081 206 L 1081 225 L 1083 232 L 1083 241 L 1086 247 L 1086 252 L 1090 261 L 1090 264 L 1097 277 L 1097 280 L 1102 286 Q 1101 288 1104 287 L 1104 290 L 1107 294 Q 1106 297 1109 296 L 1117 308 L 1120 310 L 1120 307 L 1117 303 L 1117 299 L 1115 297 L 1114 289 L 1111 282 L 1111 277 L 1108 266 L 1108 253 L 1106 244 L 1106 220 L 1108 216 L 1109 198 L 1120 174 L 1120 171 L 1126 155 Q 1125 151 1128 152 L 1129 146 L 1128 144 L 1131 138 L 1131 129 L 1132 128 L 1131 97 Q 1127 94 1128 87 L 1120 69 L 1109 54 Q 1106 55 1107 52 Q 1097 40 1082 33 L 1080 33 Q 1072 27 1056 29 Z " /><path fill="rgb(15,15,15)" stroke="rgb(15,15,15)" stroke-width="1" opacity="0.8" d="M 805.5 162 Q 821.6 159.9 828 167.5 Q 838.7 184.3 846 204.5 L 849 212.5 L 849 220.5 L 844.5 227 L 840.5 230 L 834.5 231 L 833 232.5 L 837 241.5 L 833.5 246 Q 827.7 251.7 818.5 254 L 794.5 243 L 788.5 243 L 778.5 240 L 771 236 Q 772.1 233.3 769.5 234 Q 766.9 230.6 759.5 232 L 741.5 240 L 729 251.5 L 718 266.5 L 704 290.5 L 685 330.5 Q 686.3 333.2 687.5 331 L 720.5 320 L 725.5 320 L 731.5 318 L 733.5 318 Q 743.1 316.9 748.5 320 L 758.5 320 L 763.5 322 L 780.5 322 L 784.5 320 L 790.5 320 L 811.5 315 L 838.5 313 L 839.5 314 L 854 314 L 852.5 317 L 823.5 317 L 813.5 319 L 804.5 319 L 798.5 322 L 788.5 322 L 786.5 324 L 781.5 325 L 779.5 324 L 778.5 325 L 758.5 325 L 752.5 322 L 729.5 321 Q 728.3 323.3 723.5 322 L 721.5 324 L 711.5 326 L 708.5 328 L 703.5 328 L 699.5 331 L 694.5 331 L 692.5 333 L 685.5 335 L 683 334.5 L 682 330.5 L 695 304.5 L 694 303.5 L 697 300.5 Q 710.3 270.5 729 247 L 733 244.5 L 735.5 241 L 757.5 229 L 766.5 229 L 779.5 237 L 781 236.5 Q 780.5 239.5 787.5 238 L 805.5 244 L 810.5 248 L 813.5 248 L 819.5 251 L 824 250 L 824 248 L 828 248 L 828 246.5 L 834 241.5 Q 834.7 236.2 831 235.5 L 831 229 L 835.5 229 L 844 224.5 L 846 219.5 L 846 213.5 L 836 186.5 L 830 174.5 L 823.5 167 L 821.5 166 L 818.5 167 L 817.5 166 L 801.5 166 L 796.5 167 L 792.5 166 L 786.5 169 L 775.5 170 L 773.5 172 L 766.5 172 Q 761 176.2 752 176 Q 753.1 178.7 750.5 178 L 748.5 179 L 747.5 178 L 744.5 181 L 739 182 L 737.5 185 L 732 188 L 729.5 192 L 726.5 194 L 718 202.5 L 718 204 Q 715.3 202.9 716 205.5 L 704 216.5 L 701.5 220 Q 699.3 219.3 700 221.5 L 691 230.5 L 691 232 Q 688.3 230.9 689 233.5 L 686 235 L 680 244 L 672 250.5 Q 673.1 253.8 670.5 253 L 668 254 L 661 264 L 657 266.5 L 655.5 269 L 647 276.5 Q 647.8 278.8 645.5 278 L 637 285.5 L 622 303.5 L 614 316.5 L 605 327.5 L 597 343.5 L 597 346.5 L 594 352.5 L 594 356.5 Q 597.2 360.8 597 368.5 Q 601.2 380.3 609.5 388 L 612 389.5 L 612 391 L 616 391 Q 614.8 394 618.5 393 L 627.5 397 L 631.5 397 L 636.5 400 L 641.5 400 Q 644.1 403.9 651.5 403 L 656.5 406 Q 664.2 405.2 668 407 Q 666.9 410.5 674.5 409 Q 676.3 411.7 682.5 410 L 684.5 412 L 693.5 412 L 700.5 415 L 705.5 414 L 714.5 416 L 743.5 416 L 744.5 415 L 758.5 414 L 761.5 412 L 767.5 412 L 783.5 406 L 787 410.5 L 789 423 L 786 421.5 L 784 409 L 771.5 414 L 763.5 415 L 759.5 417 L 738.5 418 L 737.5 419 L 722.5 419 L 721.5 418 L 696.5 417 L 649.5 407 L 646.5 405 L 639.5 404 L 636.5 402 L 616.5 396 L 604 385.5 L 600 380.5 L 593 365.5 L 593 345.5 L 609 317.5 L 626 294.5 L 639.5 280 L 661 259.5 L 680 239.5 L 680 238 Q 682.7 239.1 682 236.5 L 697 221.5 L 697 220 L 699 220 L 699 218 Q 701.7 219.1 701 216.5 L 738.5 180 L 750.5 174 L 760.5 171 L 779.5 167 L 783.5 165 L 796.5 163 L 798.5 164 L 805.5 162 Z " /><path fill="rgb(15,15,15)" stroke="rgb(15,15,15)" stroke-width="1" opacity="0.8" d="M 1042 361 L 1045.5 361 L 1067.5 372 L 1100.5 382 L 1111.5 388 L 1122 398.5 L 1128 409.5 L 1131 424.5 L 1133 428.5 L 1134 451.5 L 1135 452.5 L 1135 480.5 L 1134 481.5 L 1133 510.5 L 1130 522.5 L 1130 530.5 L 1128 534.5 L 1128 540.5 L 1123 560.5 L 1123 568.5 L 1125 577.5 L 1125 587.5 Q 1128.3 593.2 1128 602.5 L 1130 605.5 L 1130 611.5 L 1132 615.5 L 1133 624.5 L 1139 643.5 L 1139 648.5 Q 1141.8 650.2 1141 655.5 L 1144 662.5 L 1144 666.5 L 1150 683.5 L 1153 698.5 L 1155 701.5 L 1155 705.5 L 1161 722.5 L 1163 743.5 L 1166 757.5 L 1166 767.5 L 1168 775 Q 1163.1 776.8 1165 770.5 L 1164 769.5 L 1163 751.5 L 1162 750.5 L 1159 723.5 L 1157 720.5 Q 1157.5 713 1154 709.5 L 1154 704.5 L 1149 692.5 L 1148 684.5 L 1146 681.5 Q 1145.2 670.8 1141 663.5 L 1140 654.5 L 1135 641.5 L 1134 632.5 L 1132 629.5 L 1132 624.5 L 1129 616.5 L 1128 606.5 L 1126 603.5 L 1126 596.5 L 1124 593.5 L 1124 586.5 L 1121 571.5 L 1121 558.5 L 1123 555.5 L 1126 542.5 L 1126 535.5 L 1128 531.5 L 1128 523.5 L 1131 510.5 L 1133 486.5 L 1132 484.5 L 1133 479.5 L 1133 452.5 Q 1130.3 450.7 1132 444.5 L 1132 442.5 L 1132 435.5 L 1129 424.5 L 1129 419.5 L 1124 405.5 Q 1119.1 395.9 1110.5 390 L 1099.5 384 L 1092.5 383 L 1087.5 380 L 1079.5 379 L 1077.5 377 L 1073.5 377 L 1059.5 372 L 1042 362.5 L 1042 361 Z " /><path fill="rgb(15,15,15)" stroke="rgb(15,15,15)" stroke-width="1" opacity="0.8" d="M 1442.5 419 L 1486.5 419 L 1488 420.5 L 1486.5 420 L 1442.5 420 L 1441.5 421 L 1442.5 419 Z " /><path fill="rgb(15,15,15)" stroke="rgb(15,15,15)" stroke-width="1" opacity="0.8" d="M 1526.5 419 L 1570 419.5 L 1526.5 420 L 1526.5 419 Z " /><path fill="rgb(15,15,15)" stroke="rgb(15,15,15)" stroke-width="1" opacity="0.8" d="M 1773.5 419 L 1817 419.5 L 1773.5 420 L 1773.5 419 Z " /><path fill="rgb(15,15,15)" stroke="rgb(15,15,15)" stroke-width="1" opacity="0.8" d="M 1189.5 420 L 1291 420.5 L 1189.5 421 L 1189.5 420 Z " /><path fill="rgb(15,15,15)" stroke="rgb(15,15,15)" stroke-width="1" opacity="0.8" d="M 1818.5 421 L 1819 775.5 L 1818 775.5 L 1818.5 421 Z " /><path fill="rgb(15,15,15)" stroke="rgb(15,15,15)" stroke-width="1" opacity="0.8" d="M 1582.5 436 L 1583.5 438 L 1582.5 436 Z " /><path fill="rgb(15,15,15)" stroke="rgb(15,15,15)" stroke-width="1" opacity="0.8" d="M 48.5 441 L 91.5 441 L 93 442.5 L 92.5 562 L 92 442 L 48.5 442 L 48.5 441 Z " /><path fill="rgb(15,15,15)" stroke="rgb(15,15,15)" stroke-width="1" opacity="0.8" d="M 180.5 441 L 231 441.5 L 180.5 442 L 179.5 443 L 180.5 441 Z " /><path fill="rgb(15,15,15)" stroke="rgb(15,15,15)" stroke-width="1" opacity="0.8" d="M 768.5 441 L 769 476.5 L 768 476.5 L 768.5 441 Z " /><path fill="rgb(15,15,15)" stroke="rgb(15,15,15)" stroke-width="1" opacity="0.8" d="M 1587.5 443 L 1588.5 445 L 1587.5 443 Z " /><path fill="rgb(15,15,15)" stroke="rgb(15,15,15)" stroke-width="1" opacity="0.8" d="M 227.5 449 L 226.5 451 L 227.5 449 Z " /><path fill="rgb(15,15,15)" stroke="rgb(15,15,15)" stroke-width="1" opacity="0.8" d="M 1357.5 449 L 1358.5 451 L 1357.5 449 Z " /><path fill="rgb(15,15,15)" stroke="rgb(15,15,15)" stroke-width="1" opacity="0.8" d="M 1592.5 450 L 1593.5 452 L 1592.5 450 Z " /><path fill="rgb(15,15,15)" stroke="rgb(15,15,15)" stroke-width="1" opacity="0.8" d="M 172.5 452 L 171.5 454 L 172.5 452 Z " /><path fill="rgb(15,15,15)" stroke="rgb(15,15,15)" stroke-width="1" opacity="0.8" d="M 1597.5 457 L 1598.5 459 L 1597.5 457 Z " /><path fill="rgb(15,15,15)" stroke="rgb(15,15,15)" stroke-width="1" opacity="0.8" d="M 219.5 460 L 218.5 462 L 219.5 460 Z " /><path fill="rgb(15,15,15)" stroke="rgb(15,15,15)" stroke-width="1" opacity="0.8" d="M 1234.5 461 L 1284 461.5 L 1234.5 462 L 1234.5 461 Z " /><path fill="rgb(15,15,15)" stroke="rgb(15,15,15)" stroke-width="1" opacity="0.8" d="M 164.5 463 L 163.5 465 L 164.5 463 Z " /><path fill="rgb(15,15,15)" stroke="rgb(15,15,15)" stroke-width="1" opacity="0.8" d="M 1371.5 463 L 1373.5 466 L 1371.5 463 Z " /><path fill="rgb(15,15,15)" stroke="rgb(15,15,15)" stroke-width="1" opacity="0.8" d="M 1602.5 464 L 1603.5 466 L 1602.5 464 Z " /><path fill="rgb(15,15,15)" stroke="rgb(15,15,15)" stroke-width="1" opacity="0.8" d="M 214.5 467 L 213.5 469 L 214.5 467 Z " /><path fill="rgb(15,15,15)" stroke="rgb(15,15,15)" stroke-width="1" opacity="0.8" d="M 1376.5 469 L 1377.5 471 L 1376.5 469 Z " /><path fill="rgb(15,15,15)" stroke="rgb(15,15,15)" stroke-width="1" opacity="0.8" d="M 1607.5 471 L 1608.5 473 L 1607.5 471 Z " /><path fill="rgb(15,15,15)" stroke="rgb(15,15,15)" stroke-width="1" opacity="0.8" d="M 788.5 472 L 790 479.5 L 790 527.5 L 789 527.5 L 787 519.5 L 787 479.5 L 788.5 472 Z " /><path fill="rgb(15,15,15)" stroke="rgb(15,15,15)" stroke-width="1" opacity="0.8" d="M 156.5 474 L 155.5 476 L 156.5 474 Z " /><path fill="rgb(15,15,15)" stroke="rgb(15,15,15)" stroke-width="1" opacity="0.8" d="M 1322.5 476 L 1323.5 478 L 1322.5 476 Z " /><path fill="rgb(15,15,15)" stroke="rgb(15,15,15)" stroke-width="1" opacity="0.8" d="M 1612.5 478 L 1613.5 480 L 1612.5 478 Z " /><path fill="rgb(15,15,15)" stroke="rgb(15,15,15)" stroke-width="1" opacity="0.8" d="M 1328.5 481 L 1334.5 488 L 1328.5 481 Z " /><path fill="rgb(15,15,15)" stroke="rgb(15,15,15)" stroke-width="1" opacity="0.8" d="M 148.5 485 L 147.5 487 L 148.5 485 Z " /><path fill="rgb(15,15,15)" stroke="rgb(15,15,15)" stroke-width="1" opacity="0.8" d="M 201.5 485 L 200.5 487 L 201.5 485 Z " /><path fill="rgb(15,15,15)" stroke="rgb(15,15,15)" stroke-width="1" opacity="0.8" d="M 137.5 500 L 136.5 502 L 137.5 500 Z " /><path fill="rgb(15,15,15)" stroke="rgb(15,15,15)" stroke-width="1" opacity="0.8" d="M 188.5 503 L 187.5 505 L 188.5 503 Z " /><path fill="rgb(15,15,15)" stroke="rgb(15,15,15)" stroke-width="1" opacity="0.8" d="M 1571.5 503 L 1572 775.5 L 1571 775.5 L 1571.5 503 Z " /><path fill="rgb(15,15,15)" stroke="rgb(15,15,15)" stroke-width="1" opacity="0.8" d="M 129.5 511 L 128.5 513 L 129.5 511 Z " /><path fill="rgb(15,15,15)" stroke="rgb(15,15,15)" stroke-width="1" opacity="0.8" d="M 175.5 521 L 174.5 523 L 175.5 521 Z " /><path fill="rgb(15,15,15)" stroke="rgb(15,15,15)" stroke-width="1" opacity="0.8" d="M 121.5 522 L 120.5 524 L 121.5 522 Z " /><path fill="rgb(15,15,15)" stroke="rgb(15,15,15)" stroke-width="1" opacity="0.8" d="M 1399.5 523 L 1400 525.5 L 1399 525.5 L 1399.5 523 Z " /><path fill="rgb(15,15,15)" stroke="rgb(15,15,15)" stroke-width="1" opacity="0.8" d="M 1353.5 529 L 1354 531.5 L 1353 531.5 L 1353.5 529 Z " /><path fill="rgb(15,15,15)" stroke="rgb(15,15,15)" stroke-width="1" opacity="0.8" d="M 113.5 533 L 112.5 535 L 113.5 533 Z " /><path fill="rgb(15,15,15)" stroke="rgb(15,15,15)" stroke-width="1" opacity="0.8" d="M 1400.5 534 L 1401 547.5 L 1400 547.5 L 1400.5 534 Z " /><path fill="rgb(15,15,15)" stroke="rgb(15,15,15)" stroke-width="1" opacity="0.8" d="M 162.5 539 L 161.5 541 L 162.5 539 Z " /><path fill="rgb(15,15,15)" stroke="rgb(15,15,15)" stroke-width="1" opacity="0.8" d="M 105.5 544 L 104.5 546 L 105.5 544 Z " /><path fill="rgb(15,15,15)" stroke="rgb(15,15,15)" stroke-width="1" opacity="0.8" d="M 157.5 546 L 156.5 548 L 157.5 546 Z " /><path fill="rgb(15,15,15)" stroke="rgb(15,15,15)" stroke-width="1" opacity="0.8" d="M 1054 548 L 1058 549.5 L 1058 561.5 L 1060 566.5 L 1060 573.5 L 1062 578.5 L 1062 585.5 L 1065 597.5 L 1065 607.5 L 1067 613.5 L 1067 615.5 L 1080 698.5 L 1079 699.5 L 1079 710.5 L 1078 711.5 L 1078 737.5 L 1079 738.5 L 1080 755.5 Q 1083 758.5 1083 764.5 L 1085 766.5 L 1087 775 Q 1084 776.3 1085 772.5 L 1079 758.5 L 1076 741.5 L 1076 708.5 L 1078 700.5 L 1078 693.5 L 1076 688.5 L 1075 674.5 L 1073 668.5 L 1073 659.5 L 1071 655.5 L 1070 641.5 L 1068 637.5 L 1067 623.5 L 1065 618.5 L 1064 601.5 L 1062 596.5 L 1061 583.5 L 1059 578.5 L 1059 569.5 L 1057 564.5 L 1056 552.5 Q 1058.3 551.3 1055.5 550 L 1052.5 556 L 1050 556 L 1050 551 L 1052.5 552 L 1054 548 Z " /><path fill="rgb(15,15,15)" stroke="rgb(15,15,15)" stroke-width="1" opacity="0.8" d="M 1353.5 550 L 1354 552.5 L 1353 552.5 L 1353.5 550 Z " /><path fill="rgb(15,15,15)" stroke="rgb(15,15,15)" stroke-width="1" opacity="0.8" d="M 1664.5 551 L 1665.5 553 L 1664.5 551 Z " /><path fill="rgb(15,15,15)" stroke="rgb(15,15,15)" stroke-width="1" opacity="0.8" d="M 97.5 555 L 96.5 557 L 97.5 555 Z " /><path fill="rgb(15,15,15)" stroke="rgb(15,15,15)" stroke-width="1" opacity="0.8" d="M 1399.5 555 L 1400 557.5 L 1399 557.5 L 1399.5 555 Z " /><path fill="rgb(15,15,15)" stroke="rgb(15,15,15)" stroke-width="1" opacity="0.8" d="M 149.5 557 L 148.5 559 L 149.5 557 Z " /><path fill="rgb(15,15,15)" stroke="rgb(15,15,15)" stroke-width="1" opacity="0.8" d="M 1669.5 558 L 1670.5 560 L 1669.5 558 Z " /><path fill="rgb(15,15,15)" stroke="rgb(15,15,15)" stroke-width="1" opacity="0.8" d="M 1612.5 559 L 1613.5 561 L 1612.5 559 Z " /><path fill="rgb(15,15,15)" stroke="rgb(15,15,15)" stroke-width="1" opacity="0.8" d="M 144.5 564 L 143.5 566 L 144.5 564 Z " /><path fill="rgb(15,15,15)" stroke="rgb(15,15,15)" stroke-width="1" opacity="0.8" d="M 1674.5 565 L 1675.5 567 L 1674.5 565 Z " /><path fill="rgb(15,15,15)" stroke="rgb(15,15,15)" stroke-width="1" opacity="0.8" d="M 1617.5 566 L 1618.5 568 L 1617.5 566 Z " /><path fill="rgb(15,15,15)" stroke="rgb(15,15,15)" stroke-width="1" opacity="0.8" d="M 1679.5 572 L 1680.5 574 L 1679.5 572 Z " /><path fill="rgb(15,15,15)" stroke="rgb(15,15,15)" stroke-width="1" opacity="0.8" d="M 1622.5 573 L 1623.5 575 L 1622.5 573 Z " /><path fill="rgb(15,15,15)" stroke="rgb(15,15,15)" stroke-width="1" opacity="0.8" d="M 148.5 579 L 149.5 581 L 148.5 579 Z " /><path fill="rgb(15,15,15)" stroke="rgb(15,15,15)" stroke-width="1" opacity="0.8" d="M 1684.5 579 L 1685.5 581 L 1684.5 579 Z " /><path fill="rgb(15,15,15)" stroke="rgb(15,15,15)" stroke-width="1" opacity="0.8" d="M 1627.5 580 L 1628.5 582 L 1627.5 580 Z " /><path fill="rgb(15,15,15)" stroke="rgb(15,15,15)" stroke-width="1" opacity="0.8" d="M 1689.5 586 L 1690.5 588 L 1689.5 586 Z " /><path fill="rgb(15,15,15)" stroke="rgb(15,15,15)" stroke-width="1" opacity="0.8" d="M 1632.5 587 L 1633.5 589 L 1632.5 587 Z " /><path fill="rgb(15,15,15)" stroke="rgb(15,15,15)" stroke-width="1" opacity="0.8" d="M 1338.5 589 L 1337.5 591 L 1338.5 589 Z " /><path fill="rgb(15,15,15)" stroke="rgb(15,15,15)" stroke-width="1" opacity="0.8" d="M 156.5 590 L 157.5 592 L 156.5 590 Z " /><path fill="rgb(15,15,15)" stroke="rgb(15,15,15)" stroke-width="1" opacity="0.8" d="M 1694.5 593 L 1695.5 595 L 1694.5 593 Z " /><path fill="rgb(15,15,15)" stroke="rgb(15,15,15)" stroke-width="1" opacity="0.8" d="M 1637.5 594 L 1638.5 596 L 1637.5 594 Z " /><path fill="rgb(15,15,15)" stroke="rgb(15,15,15)" stroke-width="1" opacity="0.8" d="M 1333.5 595 L 1328.5 601 L 1333.5 595 Z " /><path fill="rgb(15,15,15)" stroke="rgb(15,15,15)" stroke-width="1" opacity="0.8" d="M 790.5 604 L 791 605.5 L 790 606.5 L 790 666.5 L 789 668.5 L 791 679.5 L 799 699.5 L 799 702.5 L 802 707.5 L 802 711.5 L 807 721.5 L 807 725.5 L 810 731.5 L 812 742.5 L 815 748.5 L 817 762.5 L 819 767.5 L 819 775 Q 815.5 776.1 817 768.5 L 815 764.5 L 815 756.5 L 812 749.5 L 809 733.5 L 798 704.5 L 798 701.5 L 795 696.5 L 787 667.5 L 788 666.5 L 788 606.5 L 790.5 604 Z " /><path fill="rgb(15,15,15)" stroke="rgb(15,15,15)" stroke-width="1" opacity="0.8" d="M 1323.5 604 L 1322.5 606 L 1323.5 604 Z " /><path fill="rgb(15,15,15)" stroke="rgb(15,15,15)" stroke-width="1" opacity="0.8" d="M 167.5 605 L 168.5 607 L 167.5 605 Z " /><path fill="rgb(15,15,15)" stroke="rgb(15,15,15)" stroke-width="1" opacity="0.8" d="M 117.5 609 L 118.5 611 L 117.5 609 Z " /><path fill="rgb(15,15,15)" stroke="rgb(15,15,15)" stroke-width="1" opacity="0.8" d="M 175.5 616 L 176.5 618 L 175.5 616 Z " /><path fill="rgb(15,15,15)" stroke="rgb(15,15,15)" stroke-width="1" opacity="0.8" d="M 1371.5 618 L 1369.5 621 L 1371.5 618 Z " /><path fill="rgb(15,15,15)" stroke="rgb(15,15,15)" stroke-width="1" opacity="0.8" d="M 1280.5 620 L 1285 620.5 L 1280.5 621 L 1280.5 620 Z " /><path fill="rgb(15,15,15)" stroke="rgb(15,15,15)" stroke-width="1" opacity="0.8" d="M 128.5 624 L 129.5 626 L 128.5 624 Z " /><path fill="rgb(15,15,15)" stroke="rgb(15,15,15)" stroke-width="1" opacity="0.8" d="M 186.5 631 L 187.5 633 L 186.5 631 Z " /><path fill="rgb(15,15,15)" stroke="rgb(15,15,15)" stroke-width="1" opacity="0.8" d="M 1357.5 632 L 1354.5 636 L 1357.5 632 Z " /><path fill="rgb(15,15,15)" stroke="rgb(15,15,15)" stroke-width="1" opacity="0.8" d="M 92.5 634 L 93 773.5 L 92 773.5 L 92.5 634 Z " /><path fill="rgb(15,15,15)" stroke="rgb(15,15,15)" stroke-width="1" opacity="0.8" d="M 136.5 635 L 137.5 637 L 136.5 635 Z " /><path fill="rgb(15,15,15)" stroke="rgb(15,15,15)" stroke-width="1" opacity="0.8" d="M 1349.5 639 L 1348.5 641 L 1349.5 639 Z " /><path fill="rgb(15,15,15)" stroke="rgb(15,15,15)" stroke-width="1" opacity="0.8" d="M 194.5 642 L 195.5 644 L 194.5 642 Z " /><path fill="rgb(15,15,15)" stroke="rgb(15,15,15)" stroke-width="1" opacity="0.8" d="M 1345.5 642 L 1344.5 644 L 1345.5 642 Z " /><path fill="rgb(15,15,15)" stroke="rgb(15,15,15)" stroke-width="1" opacity="0.8" d="M 144.5 646 L 145.5 648 L 144.5 646 Z " /><path fill="rgb(15,15,15)" stroke="rgb(15,15,15)" stroke-width="1" opacity="0.8" d="M 1017.5 652 L 1019 656.5 L 1017 660.5 L 1016 670.5 L 1014 674.5 Q 1015.5 680 1013 681.5 L 1012 709.5 L 1014 718.5 L 1018 724.5 L 1030.5 737 Q 1050.2 751.8 1066 770.5 L 1067 772.5 L 1066 775 Q 1062.7 776.3 1064 771.5 L 1056 765 L 1053 759 L 1051.5 759 L 1033 741.5 Q 1033.8 738.9 1030.5 740 L 1016 725.5 L 1010 714.5 L 1009 695.5 L 1011 687.5 L 1011 680.5 L 1013 675.5 L 1012 671.5 L 1015 664.5 L 1016 653.5 L 1017.5 652 Z " /><path fill="rgb(15,15,15)" stroke="rgb(15,15,15)" stroke-width="1" opacity="0.8" d="M 1679.5 653 L 1680.5 655 L 1679.5 653 Z " /><path fill="rgb(15,15,15)" stroke="rgb(15,15,15)" stroke-width="1" opacity="0.8" d="M 205.5 657 L 206.5 659 L 205.5 657 Z " /><path fill="rgb(15,15,15)" stroke="rgb(15,15,15)" stroke-width="1" opacity="0.8" d="M 1684.5 660 L 1685.5 662 L 1684.5 660 Z " /><path fill="rgb(15,15,15)" stroke="rgb(15,15,15)" stroke-width="1" opacity="0.8" d="M 155.5 661 L 156.5 663 L 155.5 661 Z " /><path fill="rgb(15,15,15)" stroke="rgb(15,15,15)" stroke-width="1" opacity="0.8" d="M 1234.5 661 L 1275 661.5 L 1234.5 662 L 1234.5 661 Z " /><path fill="rgb(15,15,15)" stroke="rgb(15,15,15)" stroke-width="1" opacity="0.8" d="M 1746.5 666 L 1747.5 668 L 1746.5 666 Z " /><path fill="rgb(15,15,15)" stroke="rgb(15,15,15)" stroke-width="1" opacity="0.8" d="M 1689.5 667 L 1690.5 669 L 1689.5 667 Z " /><path fill="rgb(15,15,15)" stroke="rgb(15,15,15)" stroke-width="1" opacity="0.8" d="M 213.5 668 L 214.5 670 L 213.5 668 Z " /><path fill="rgb(15,15,15)" stroke="rgb(15,15,15)" stroke-width="1" opacity="0.8" d="M 377.5 669 L 492.5 669 L 494 670.5 L 492.5 670 L 377.5 670 L 377.5 669 Z " /><path fill="rgb(15,15,15)" stroke="rgb(15,15,15)" stroke-width="1" opacity="0.8" d="M 163.5 672 L 164.5 674 L 163.5 672 Z " /><path fill="rgb(15,15,15)" stroke="rgb(15,15,15)" stroke-width="1" opacity="0.8" d="M 1751.5 673 L 1752.5 675 L 1751.5 673 Z " /><path fill="rgb(15,15,15)" stroke="rgb(15,15,15)" stroke-width="1" opacity="0.8" d="M 1694.5 674 L 1695.5 676 L 1694.5 674 Z " /><path fill="rgb(15,15,15)" stroke="rgb(15,15,15)" stroke-width="1" opacity="0.8" d="M 1756.5 680 L 1757.5 682 L 1756.5 680 Z " /><path fill="rgb(15,15,15)" stroke="rgb(15,15,15)" stroke-width="1" opacity="0.8" d="M 1699.5 681 L 1700.5 683 L 1699.5 681 Z " /><path fill="rgb(15,15,15)" stroke="rgb(15,15,15)" stroke-width="1" opacity="0.8" d="M 224.5 683 L 225.5 685 L 224.5 683 Z " /><path fill="rgb(15,15,15)" stroke="rgb(15,15,15)" stroke-width="1" opacity="0.8" d="M 174.5 687 L 175.5 689 L 174.5 687 Z " /><path fill="rgb(15,15,15)" stroke="rgb(15,15,15)" stroke-width="1" opacity="0.8" d="M 1761.5 687 L 1762.5 689 L 1761.5 687 Z " /><path fill="rgb(15,15,15)" stroke="rgb(15,15,15)" stroke-width="1" opacity="0.8" d="M 1704.5 688 L 1705.5 690 L 1704.5 688 Z " /><path fill="rgb(15,15,15)" stroke="rgb(15,15,15)" stroke-width="1" opacity="0.8" d="M 232.5 694 L 233.5 696 L 232.5 694 Z " /><path fill="rgb(15,15,15)" stroke="rgb(15,15,15)" stroke-width="1" opacity="0.8" d="M 1766.5 694 L 1767.5 696 L 1766.5 694 Z " /><path fill="rgb(15,15,15)" stroke="rgb(15,15,15)" stroke-width="1" opacity="0.8" d="M 182.5 698 L 183.5 700 L 182.5 698 Z " /><path fill="rgb(15,15,15)" stroke="rgb(15,15,15)" stroke-width="1" opacity="0.8" d="M 190.5 709 L 191.5 711 L 190.5 709 Z " /><path fill="rgb(15,15,15)" stroke="rgb(15,15,15)" stroke-width="1" opacity="0.8" d="M 243.5 709 L 244.5 711 L 243.5 709 Z " /><path fill="rgb(15,15,15)" stroke="rgb(15,15,15)" stroke-width="1" opacity="0.8" d="M 251.5 720 L 252.5 722 L 251.5 720 Z " /><path fill="rgb(15,15,15)" stroke="rgb(15,15,15)" stroke-width="1" opacity="0.8" d="M 201.5 724 L 202.5 726 L 201.5 724 Z " /><path fill="rgb(15,15,15)" stroke="rgb(15,15,15)" stroke-width="1" opacity="0.8" d="M 209.5 735 L 210.5 737 L 209.5 735 Z " /><path fill="rgb(15,15,15)" stroke="rgb(15,15,15)" stroke-width="1" opacity="0.8" d="M 262.5 735 L 263.5 737 L 262.5 735 Z " /><path fill="rgb(15,15,15)" stroke="rgb(15,15,15)" stroke-width="1" opacity="0.8" d="M 270.5 746 L 271.5 748 L 270.5 746 Z " /><path fill="rgb(15,15,15)" stroke="rgb(15,15,15)" stroke-width="1" opacity="0.8" d="M 1746.5 747 L 1747.5 749 L 1746.5 747 Z " /><path fill="rgb(15,15,15)" stroke="rgb(15,15,15)" stroke-width="1" opacity="0.8" d="M 220.5 750 L 221.5 752 L 220.5 750 Z " /><path fill="rgb(15,15,15)" stroke="rgb(15,15,15)" stroke-width="1" opacity="0.8" d="M 1751.5 754 L 1752.5 756 L 1751.5 754 Z " /><path fill="rgb(15,15,15)" stroke="rgb(15,15,15)" stroke-width="1" opacity="0.8" d="M 228.5 761 L 229.5 763 L 228.5 761 Z " /><path fill="rgb(15,15,15)" stroke="rgb(15,15,15)" stroke-width="1" opacity="0.8" d="M 281.5 761 L 282.5 763 L 281.5 761 Z " /><path fill="rgb(15,15,15)" stroke="rgb(15,15,15)" stroke-width="1" opacity="0.8" d="M 1756.5 761 L 1757.5 763 L 1756.5 761 Z " /><path fill="rgb(15,15,15)" stroke="rgb(15,15,15)" stroke-width="1" opacity="0.8" d="M 1761.5 768 L 1762.5 770 L 1761.5 768 Z " /><path fill="rgb(15,15,15)" stroke="rgb(15,15,15)" stroke-width="1" opacity="0.8" d="M 236.5 772 L 237.5 774 L 236.5 772 Z " /><path fill="rgb(15,15,15)" stroke="rgb(15,15,15)" stroke-width="1" opacity="0.8" d="M 1766.5 775 L 1767.5 777 L 1766.5 775 Z " /><path fill="rgb(15,15,15)" stroke="rgb(15,15,15)" stroke-width="1" opacity="0.8" d="M 682.5 850 L 788 850.5 L 682.5 851 L 682.5 850 Z " /><path fill="rgb(15,15,15)" stroke="rgb(15,15,15)" stroke-width="1" opacity="0.8" d="M 1087.5 850 L 1204 850.5 L 1087.5 851 L 1087.5 850 Z " /><path fill="rgb(15,15,15)" stroke="rgb(15,15,15)" stroke-width="1" opacity="0.8" d="M 491.5 851 L 544 851.5 L 491.5 852 L 491.5 851 Z " /><path fill="rgb(15,15,15)" stroke="rgb(15,15,15)" stroke-width="1" opacity="0.8" d="M 1340.5 851 L 1391 851.5 L 1340.5 852 L 1340.5 851 Z " /><path fill="rgb(15,15,15)" stroke="rgb(15,15,15)" stroke-width="1" opacity="0.8" d="M 379.5 852 L 411 852.5 L 379.5 853 L 379.5 852 Z " /><path fill="rgb(15,15,15)" stroke="rgb(15,15,15)" stroke-width="1" opacity="0.8" d="M 1471.5 852 L 1502 852.5 L 1471.5 853 L 1471.5 852 Z " /><path fill="rgb(15,15,15)" stroke="rgb(15,15,15)" stroke-width="1" opacity="0.8" d="M 299.5 853 L 324 853.5 L 299.5 854 L 299.5 853 Z " /><path fill="rgb(15,15,15)" stroke="rgb(15,15,15)" stroke-width="1" opacity="0.8" d="M 1558.5 853 L 1580 853.5 L 1558.5 854 L 1558.5 853 Z " /><path fill="rgb(15,15,15)" stroke="rgb(15,15,15)" stroke-width="1" opacity="0.8" d="M 244.5 854 L 260 854.5 L 244.5 855 L 244.5 854 Z " /><path fill="rgb(15,15,15)" stroke="rgb(15,15,15)" stroke-width="1" opacity="0.8" d="M 1622.5 854 L 1639 854.5 L 1622.5 855 L 1622.5 854 Z " /><path fill="rgb(15,15,15)" stroke="rgb(15,15,15)" stroke-width="1" opacity="0.8" d="M 205.5 855 L 216 855.5 L 205.5 856 L 205.5 855 Z " /><path fill="rgb(15,15,15)" stroke="rgb(15,15,15)" stroke-width="1" opacity="0.8" d="M 1666.5 855 L 1677 855.5 L 1666.5 856 L 1666.5 855 Z " /><path fill="rgb(15,15,15)" stroke="rgb(15,15,15)" stroke-width="1" opacity="0.8" d="M 177.5 856 L 184 856.5 L 177.5 857 L 177.5 856 Z " /><path fill="rgb(15,15,15)" stroke="rgb(15,15,15)" stroke-width="1" opacity="0.8" d="M 1698.5 856 L 1705 856.5 L 1698.5 857 L 1698.5 856 Z " /><path fill="rgb(15,15,15)" stroke="rgb(15,15,15)" stroke-width="1" opacity="0.8" d="M 177.5 860 L 184 860.5 L 177.5 861 L 177.5 860 Z " /><path fill="rgb(15,15,15)" stroke="rgb(15,15,15)" stroke-width="1" opacity="0.8" d="M 1698.5 860 L 1705 860.5 L 1698.5 861 L 1698.5 860 Z " /><path fill="rgb(15,15,15)" stroke="rgb(15,15,15)" stroke-width="1" opacity="0.8" d="M 205.5 861 L 216 861.5 L 205.5 862 L 205.5 861 Z " /><path fill="rgb(15,15,15)" stroke="rgb(15,15,15)" stroke-width="1" opacity="0.8" d="M 1666.5 861 L 1677 861.5 L 1666.5 862 L 1666.5 861 Z " /><path fill="rgb(15,15,15)" stroke="rgb(15,15,15)" stroke-width="1" opacity="0.8" d="M 243.5 862 L 260 862.5 L 243.5 863 L 243.5 862 Z " /><path fill="rgb(15,15,15)" stroke="rgb(15,15,15)" stroke-width="1" opacity="0.8" d="M 1622.5 862 L 1638 862.5 L 1622.5 863 L 1622.5 862 Z " /><path fill="rgb(15,15,15)" stroke="rgb(15,15,15)" stroke-width="1" opacity="0.8" d="M 302.5 863 L 325 863.5 L 302.5 864 L 302.5 863 Z " /><path fill="rgb(15,15,15)" stroke="rgb(15,15,15)" stroke-width="1" opacity="0.8" d="M 1558.5 863 L 1582 863.5 L 1558.5 864 L 1558.5 863 Z " /><path fill="rgb(15,15,15)" stroke="rgb(15,15,15)" stroke-width="1" opacity="0.8" d="M 381.5 864 L 411 864.5 L 381.5 865 L 381.5 864 Z " /><path fill="rgb(15,15,15)" stroke="rgb(15,15,15)" stroke-width="1" opacity="0.8" d="M 1470.5 864 L 1503 864.5 L 1470.5 865 L 1470.5 864 Z " /><path fill="rgb(15,15,15)" stroke="rgb(15,15,15)" stroke-width="1" opacity="0.8" d="M 491.5 865 L 542 865.5 L 491.5 866 L 491.5 865 Z " /><path fill="rgb(15,15,15)" stroke="rgb(15,15,15)" stroke-width="1" opacity="0.8" d="M 1338.5 865 L 1391 865.5 L 1338.5 866 L 1338.5 865 Z " /><path fill="rgb(15,15,15)" stroke="rgb(15,15,15)" stroke-width="1" opacity="0.8" d="M 679.5 866 L 797 866.5 L 679.5 867 L 679.5 866 Z " /><path fill="rgb(15,15,15)" stroke="rgb(15,15,15)" stroke-width="1" opacity="0.8" d="M 1088.5 866 L 1199 866.5 L 1088.5 867 L 1088.5 866 Z " /><path fill="rgb(0,0,0)" stroke="rgb(0,0,0)" stroke-width="1" opacity="1" d="M 1055.5 29 Q 1071.5 27 1079.5 33 L 1081.5 33 Q 1096.8 39.8 1107 51.5 Q 1105.9 54.8 1108.5 54 L 1120 68.5 L 1128 86.5 Q 1127.3 93.7 1131 96.5 L 1132 127.5 L 1131 128.5 L 1131 137.5 L 1128 143.5 L 1129 145.5 L 1128 152 Q 1125 150.8 1126 154.5 L 1120 170.5 L 1120 173.5 L 1109 197.5 L 1108 215.5 L 1106 219.5 L 1106 243.5 L 1108 252.5 L 1108 265.5 L 1111 276.5 L 1111 281.5 L 1114 288.5 L 1115 296.5 L 1117 298.5 L 1117 302.5 L 1120 306.5 L 1120 309.5 L 1117 307.5 L 1108.5 296 Q 1105.9 296.8 1107 293.5 L 1104 289.5 L 1104 287 Q 1101.3 288.1 1102 285.5 L 1097 279.5 L 1097 276.5 L 1090 263.5 L 1090 260.5 L 1086 251.5 L 1086 246.5 L 1083 240.5 L 1083 231.5 L 1081 224.5 L 1081 205.5 L 1083 196.5 L 1083 187.5 L 1086 180.5 L 1086 165.5 L 1088 154.5 L 1087 153.5 L 1086 131.5 L 1083 124.5 L 1083 122.5 L 1081 114.5 L 1075 104 Q 1072.3 105.1 1073 102.5 L 1072 100 L 1067 96.5 Q 1067.8 94.3 1065.5 95 L 1056.5 89 L 1051 88 Q 1049.3 74.9 1040.5 68 Q 1038.3 68.8 1039 66.5 L 1024.5 57 L 1017.5 54 L 1008 53 Q 1006.9 50.3 1009.5 51 L 1018 45 L 1019.5 42 L 1043.5 30 L 1054.5 30 L 1055.5 29 Z " /><path fill="rgb(0,0,0)" stroke="rgb(0,0,0)" stroke-width="1" opacity="1" d="M 967.5 67 L 991.5 67 L 992.5 68 L 997.5 67 L 1025.5 79 L 1047 93.5 L 1049 96.5 Q 1057.2 104.7 1061 117.5 L 1062 127.5 L 1064 132.5 L 1064 163.5 L 1061 178.5 L 1061 188 L 1059 188.5 L 1059 197.5 L 1056 203.5 L 1056 208.5 L 1063 212.5 L 1059 227.5 L 1050 249 Q 1047 247.8 1048 251.5 L 1045 257 L 1040 258 L 1040 260 Q 1037.3 258.9 1038 261.5 L 1036 268 Q 1033 266.8 1034 270.5 L 1019 298.5 L 1016 310.5 L 1015 325.5 L 1016 329.5 L 1015 332 L 1017 332.5 L 1007 357.5 L 990 391.5 Q 977.3 414.8 958.5 432 L 943.5 441 Q 936.7 440.7 933.5 444 L 915.5 445 L 914.5 446 L 901.5 446 L 900.5 445 L 889.5 445 L 878.5 442 L 863 432 L 857 422.5 L 854 411.5 L 854 406.5 Q 856.8 404.8 855 398.5 L 860 384.5 L 860 380.5 L 869 356.5 L 874 337.5 L 877 332.5 L 877 328.5 L 880 323.5 L 880 319.5 L 883.5 313 L 889.5 314 L 890.5 313 L 906.5 312 L 907.5 311 L 911 312 Q 909.9 308.5 917.5 310 L 919.5 309 L 921.5 310 L 928 306.5 L 928 303.5 L 920 291.5 L 911 272.5 Q 911.8 264.7 908 261.5 L 908 252.5 L 906 249.5 L 906 234.5 L 905 232 L 902 230.5 L 900 227.5 L 899 219.5 L 897 215.5 L 897 179.5 Q 898.3 176.8 899.5 179 L 902.5 180 L 905 179 Q 906.9 176.3 906 169.5 L 905 166.5 L 906 165.5 L 906 154.5 L 908 151.5 L 908 144.5 L 911 135.5 L 911 130.5 L 914 124.5 L 914 120.5 L 916 117.5 L 919 105.5 L 926 93 Q 929 94.3 928 90.5 L 931 86 L 947.5 74 L 967.5 67 Z M 1032 123 L 1023 131 L 1017 134 L 1005 137 L 981 137 L 980 136 L 951 136 L 943 138 L 933 143 L 927 150 L 936 144 L 947 140 L 985 140 L 986 141 Q 990 142 992 140 L 997 141 Q 1000 138 1009 140 L 1011 138 L 1017 137 L 1023 134 L 1028 130 Q 1027 127 1030 128 L 1032 125 L 1032 123 Z M 927 150 L 925 153 L 927 152 L 927 150 Z " /><path fill="rgb(0,0,0)" stroke="rgb(0,0,0)" stroke-width="1" opacity="1" d="M 792.5 166 L 800.5 167 L 801.5 166 L 817.5 166 L 820.5 167 L 822.5 167 L 828 171.5 L 839 193.5 L 846 213.5 L 846 219.5 L 842.5 226 L 835.5 229 L 831 229 L 831 235.5 Q 834.7 236.2 834 241.5 L 828 246.5 L 828 248 L 824 248 L 824 250 L 820.5 250 L 818.5 251 L 800.5 242 L 787.5 238 L 781 238 L 780.5 236 L 778.5 237 L 766.5 229 L 757.5 229 L 753.5 232 L 750.5 232 L 744.5 235 L 733 243.5 L 730.5 247 Q 728.3 246.3 729 248.5 L 724 253.5 L 712 271.5 L 700 295.5 L 694 303.5 L 694 305.5 L 682 332.5 L 683.5 335 L 685.5 335 L 692.5 333 L 694.5 331 L 699.5 331 L 703.5 328 L 708.5 328 L 711.5 326 L 721.5 324 L 723.5 322 L 743.5 321 L 744.5 322 L 752.5 322 L 758.5 325 L 778.5 325 L 780.5 324 L 782.5 324 Q 787.5 325 788.5 322 L 798.5 322 L 804.5 319 L 813.5 319 L 823.5 317 L 852 317 L 844 329.5 L 815 387.5 L 795 411.5 L 789.5 422 L 787 410.5 L 783.5 406 L 767.5 412 L 761.5 412 L 758.5 414 L 744.5 415 L 743.5 416 L 714.5 416 L 713.5 415 L 701.5 414 L 699.5 414 Q 694.1 410.9 684.5 412 L 682.5 410 L 668 409 Q 669.3 406 665.5 407 L 664.5 406 L 656.5 406 L 651.5 403 L 646.5 403 L 641.5 400 L 636.5 400 L 631.5 397 L 627.5 397 L 622.5 394 L 616 393 L 616 391 L 612 391 L 612 389.5 L 605 383.5 L 597 368.5 L 594 352.5 L 605 327.5 L 614 316.5 L 622 303.5 L 639.5 283 L 647 278 L 654.5 269 L 657 267.5 L 659.5 264 Q 661.8 264.8 661 262.5 L 668 254 L 672 253 L 672 250.5 L 678.5 244 Q 680.8 244.8 680 242.5 L 686 235 L 689 233.5 L 691 230.5 L 700 221.5 L 700 220 L 704 217.5 L 705.5 215 L 716 205.5 L 718 202.5 L 726.5 194 L 728 194 Q 726.9 191.3 729.5 192 L 732 188 L 739 183.5 Q 738.1 180.5 742.5 182 L 747.5 178 L 749.5 179 L 752 178 Q 750.6 174.3 756.5 176 L 766.5 172 L 773.5 172 L 775.5 170 L 786.5 169 L 792.5 166 Z M 692 240 L 690 242 L 692 242 L 692 240 Z M 690 242 L 688 245 L 690 244 L 690 242 Z M 687 245 L 685 247 Q 684 249 687 248 L 687 245 Z M 677 256 L 674 260 L 678 257 L 677 256 Z M 673 261 L 664 271 L 666 271 L 673 263 L 673 261 Z M 664 271 L 657 279 L 659 279 L 664 273 L 664 271 Z M 654 281 Q 653 284 656 283 Q 657 280 654 281 Z M 652 284 L 652 286 L 654 285 L 652 284 Z M 651 286 L 649 289 L 651 288 L 651 286 Z M 643 296 L 641 298 L 643 298 L 643 296 Z " /><path fill="rgb(0,0,0)" stroke="rgb(0,0,0)" stroke-width="1" opacity="1" d="M 1041 363 L 1064.5 374 Q 1070.5 374 1073.5 377 L 1077.5 377 L 1079.5 379 L 1087.5 380 L 1092.5 383 L 1099.5 384 L 1110.5 390 L 1121 400.5 L 1129 419.5 L 1129 424.5 L 1131 429.5 L 1132 442.5 L 1133 443.5 Q 1130.3 445.3 1132 451.5 L 1133 452.5 L 1133 479.5 L 1132 484.5 L 1133 491.5 L 1132 492.5 L 1131 510.5 L 1129 515.5 L 1128 531.5 L 1126 535.5 L 1126 542.5 L 1123 555.5 L 1121 558.5 L 1121 571.5 L 1124 586.5 L 1124 593.5 L 1126 596.5 L 1126 603.5 L 1128 606.5 Q 1128 617.5 1132 624.5 L 1132 629.5 L 1134 632.5 L 1137 648.5 L 1140 654.5 L 1141 663.5 Q 1145.2 670.8 1146 681.5 L 1148 684.5 L 1149 692.5 L 1154 704.5 L 1154 709.5 Q 1157.5 713 1157 720.5 L 1159 723.5 L 1165 775 L 1087.5 775 L 1087 772.5 L 1080 755.5 L 1079 738.5 L 1078 737.5 L 1078 711.5 L 1079 710.5 L 1080 695.5 L 1076 676.5 L 1076 669.5 L 1074 663.5 L 1074 656.5 L 1072 650.5 L 1071 636.5 L 1068 626.5 L 1068 618.5 L 1066 614.5 L 1067 611.5 L 1065 607.5 L 1065 597.5 L 1062 585.5 L 1062 578.5 L 1060 573.5 L 1060 566.5 L 1058 561.5 L 1058 549.5 L 1056.5 548 Q 1053.2 546.9 1054 549.5 L 1052.5 552 L 1050.5 551 L 1049 551.5 L 1050 550.5 L 1050 540.5 L 1051 539.5 L 1052 522.5 L 1053 521.5 L 1053 500.5 L 1052 499.5 L 1050 481.5 L 1043 462.5 L 1035 447.5 L 1032 435.5 L 1031 407.5 L 1032 406.5 L 1032 398.5 L 1035 383.5 L 1041 363 Z " /><path fill="rgb(0,0,0)" stroke="rgb(0,0,0)" stroke-width="1" opacity="1" d="M 1442.5 420 L 1486.5 420 L 1488 421.5 L 1488 775.5 L 1486.5 777 L 1442.5 777 L 1441 775.5 L 1441 421.5 L 1442.5 420 Z " /><path fill="rgb(0,0,0)" stroke="rgb(0,0,0)" stroke-width="1" opacity="1" d="M 1525 420 L 1570.5 420 L 1573 422.5 L 1771.5 701 L 1772 420 L 1817.5 420 L 1818 420.5 L 1818 777 L 1768.5 777 L 1765 773.5 L 1572.5 503 L 1571 503.5 L 1571 776.5 L 1570.5 777 L 1526.5 777 L 1525 775.5 L 1525 420 Z " /><path fill="rgb(0,0,0)" stroke="rgb(0,0,0)" stroke-width="1" opacity="1" d="M 1188 421 L 1294.5 421 Q 1295.8 423.3 1300.5 422 Q 1345.7 432.3 1371 462.5 Q 1387.6 480.4 1396 506.5 L 1400 526.5 L 1400 554.5 L 1396 574.5 L 1387 596.5 Q 1375.5 617 1358.5 632 L 1339.5 647 L 1323 654.5 L 1402 775.5 L 1402 778 L 1349.5 778 L 1349 776.5 L 1275 661 L 1234 661 L 1234 778 L 1189.5 778 L 1188 776.5 L 1188 421 Z M 1234 461 L 1234 621 L 1285 621 Q 1286 619 1292 620 Q 1314 615 1329 601 Q 1349 584 1354 553 L 1354 530 L 1351 516 Q 1346 499 1335 488 Q 1321 472 1300 464 L 1284 461 L 1234 461 Z " /><path fill="rgb(0,0,0)" stroke="rgb(0,0,0)" stroke-width="1" opacity="1" d="M 410 440 L 461.5 440 L 463 441.5 L 576 772.5 L 574.5 774 L 529.5 774 L 522 755.5 Q 508.9 710.6 492.5 669 L 377.5 669 L 376 670.5 L 343 774 L 297.5 774 L 297 770.5 L 410 440 Z M 435 481 L 420 535 L 387 633 L 387 634 L 484 634 L 446 524 L 435 481 Z " /><path fill="rgb(0,0,0)" stroke="rgb(0,0,0)" stroke-width="1" opacity="1" d="M 522.5 440 L 767.5 440 L 768 440.5 L 768 478 L 667 478 L 667 772.5 L 665.5 774 L 623.5 774 L 622 772.5 L 622 478 L 521 478 L 521 441.5 L 522.5 440 Z " /><path fill="rgb(0,0,0)" stroke="rgb(0,0,0)" stroke-width="1" opacity="1" d="M 47 442 L 92 442 L 92 561.5 L 95 559.5 L 180.5 442 L 232 442.5 L 141 569.5 L 287 768.5 L 290 775 L 238.5 775 L 238 773.5 L 114.5 605 Q 112.3 604.3 113 606.5 L 92 634.5 L 92 775 L 48.5 775 L 47 773.5 L 47 442 Z " /><path fill="rgb(0,0,0)" stroke="rgb(0,0,0)" stroke-width="1" opacity="1" d="M 791 464 Q 794 462.8 793 466.5 L 792 472 Q 789.3 473.1 790 470.5 L 791 464 Z " /><path fill="rgb(0,0,0)" stroke="rgb(0,0,0)" stroke-width="1" opacity="1" d="M 790.5 478 L 791 480.5 L 790 480.5 L 790.5 478 Z " /><path fill="rgb(0,0,0)" stroke="rgb(0,0,0)" stroke-width="1" opacity="1" d="M 1038 569 Q 1040.7 567.9 1040 570.5 Q 1037.4 571.9 1038 576.5 L 1035.5 579 L 1035 574.5 L 1038 569 Z " /><path fill="rgb(0,0,0)" stroke="rgb(0,0,0)" stroke-width="1" opacity="1" d="M 1033 580 Q 1036.7 578.6 1035 584.5 L 1033 586.5 L 1032 593.5 L 1027 602.5 L 1027 605.5 L 1023 616 Q 1019.7 617.3 1021 612.5 L 1024 606.5 L 1024 602.5 L 1026 600.5 L 1027 593.5 L 1033 580 Z " /><path fill="rgb(0,0,0)" stroke="rgb(0,0,0)" stroke-width="1" opacity="1" d="M 791 604 L 827.5 604 L 828.5 605 L 866.5 606 L 880.5 609 L 892.5 609 L 903.5 612 L 917.5 613 L 920.5 615 L 925.5 615 L 933.5 618 L 939.5 618 L 944.5 621 L 959.5 624 L 978.5 631 L 980.5 633 L 997.5 640 L 1016 652.5 L 1016 659.5 L 1012 674.5 L 1012 676.5 L 1010 694.5 L 1009 695.5 L 1009 703.5 L 1010 704.5 L 1010 714.5 L 1013 720.5 L 1016 725.5 L 1030.5 740 Q 1033.8 738.9 1033 741.5 L 1051.5 759 L 1053 759 L 1056 765 L 1064 771.5 L 1063.5 775 L 819 775 L 819 767.5 L 817 762.5 L 815 748.5 L 812 742.5 L 812 738.5 L 807 725.5 L 807 721.5 L 802 711.5 L 802 707.5 L 799 702.5 L 799 699.5 L 791 679.5 L 789 667.5 L 790 666.5 L 790 606.5 L 791 604 Z " /><path fill="rgb(0,0,0)" stroke="rgb(0,0,0)" stroke-width="1" opacity="1" d="M 788.5 850 L 1086.5 850 L 1087.5 851 L 1470.5 852 L 1471.5 853 L 1557.5 853 L 1558.5 854 L 1665.5 855 L 1666.5 856 L 1712.5 857 L 1717 858.5 L 1712.5 860 L 1666.5 861 L 1665.5 862 L 1558.5 863 L 1557.5 864 L 1470.5 864 L 1469.5 865 L 1088.5 866 L 1087.5 867 L 797.5 867 L 796.5 866 L 542.5 866 L 541.5 865 L 325.5 864 L 324.5 863 L 260.5 863 L 259.5 862 L 184.5 861 L 183.5 860 L 169.5 860 L 165 858.5 L 169.5 857 L 183.5 857 L 184.5 856 L 259.5 855 L 260.5 854 L 323.5 854 L 324.5 853 L 543.5 852 L 544.5 851 L 787.5 851 L 788.5 850 Z " /></svg>